<svg width="190" height="190" viewBox="0 0 190 190" fill="none" xmlns="http://www.w3.org/2000/svg">
<path d="M114.62 67.3721H72.6415C69.3295 67.3721 66.6445 70.057 66.6445 73.369V115.348C66.6445 118.66 69.3295 121.345 72.6415 121.345H114.62C117.932 121.345 120.617 118.66 120.617 115.348V73.369C120.617 70.057 117.932 67.3721 114.62 67.3721Z" stroke="#8A94A6" stroke-width="5.99695" stroke-linecap="round" stroke-linejoin="round"/>
<path d="M83.1369 88.3616C85.6209 88.3616 87.6346 86.3479 87.6346 83.8639C87.6346 81.3799 85.6209 79.3662 83.1369 79.3662C80.6529 79.3662 78.6392 81.3799 78.6392 83.8639C78.6392 86.3479 80.6529 88.3616 83.1369 88.3616Z" stroke="#8A94A6" stroke-width="5.99695" stroke-linecap="round" stroke-linejoin="round"/>
<path d="M120.618 103.354L105.626 88.3613L72.6428 121.345" stroke="#8A94A6" stroke-width="5.99695" stroke-linecap="round" stroke-linejoin="round"/>
</svg>
