<svg width="50" height="10" viewBox="0 0 50 10" fill="none" xmlns="http://www.w3.org/2000/svg">
<g clip-path="url(#clip0_5333_8965)">
<path d="M4.76917 0.804982C4.85457 0.599659 5.14543 0.599659 5.23083 0.804982L6.26388 3.28872C6.29988 3.37528 6.38128 3.43442 6.47473 3.44191L9.15613 3.65688C9.3778 3.67465 9.46768 3.95128 9.29879 4.09595L7.25585 5.84595C7.18465 5.90694 7.15356 6.00263 7.17531 6.09382L7.79946 8.71042C7.85106 8.92672 7.61575 9.09769 7.42597 8.98177L5.13031 7.5796C5.05031 7.53073 4.94969 7.53073 4.86969 7.5796L2.57403 8.98177C2.38425 9.09769 2.14894 8.92672 2.20054 8.71042L2.82469 6.09382C2.84644 6.00263 2.81535 5.90694 2.74415 5.84595L0.701207 4.09595C0.532322 3.95128 0.622204 3.67465 0.843867 3.65688L3.52527 3.44191C3.61872 3.43442 3.70012 3.37528 3.73612 3.28872L4.76917 0.804982Z" fill="#EDEEF1"/>
<g clip-path="url(#clip1_5333_8965)">
<path d="M4.76917 0.804982C4.85457 0.599659 5.14543 0.599659 5.23083 0.804982L6.26388 3.28872C6.29988 3.37528 6.38128 3.43442 6.47473 3.44191L9.15613 3.65688C9.3778 3.67465 9.46768 3.95128 9.29879 4.09595L7.25585 5.84595C7.18465 5.90694 7.15356 6.00263 7.17531 6.09382L7.79946 8.71042C7.85106 8.92672 7.61575 9.09769 7.42597 8.98177L5.13031 7.5796C5.05031 7.53073 4.94969 7.53073 4.86969 7.5796L2.57403 8.98177C2.38425 9.09769 2.14894 8.92672 2.20054 8.71042L2.82469 6.09382C2.84644 6.00263 2.81535 5.90694 2.74415 5.84595L0.701207 4.09595C0.532322 3.95128 0.622204 3.67465 0.843867 3.65688L3.52527 3.44191C3.61872 3.43442 3.70012 3.37528 3.73612 3.28872L4.76917 0.804982Z" fill="#FDB122"/>
</g>
</g>
<g clip-path="url(#clip2_5333_8965)">
<path d="M14.7692 0.804982C14.8546 0.599659 15.1454 0.599659 15.2308 0.804982L16.2639 3.28872C16.2999 3.37528 16.3813 3.43442 16.4747 3.44191L19.1561 3.65688C19.3778 3.67465 19.4677 3.95128 19.2988 4.09595L17.2558 5.84595C17.1846 5.90694 17.1536 6.00263 17.1753 6.09382L17.7995 8.71042C17.8511 8.92672 17.6157 9.09769 17.426 8.98177L15.1303 7.5796C15.0503 7.53073 14.9497 7.53073 14.8697 7.5796L12.574 8.98177C12.3843 9.09769 12.1489 8.92672 12.2005 8.71042L12.8247 6.09382C12.8464 6.00263 12.8154 5.90694 12.7442 5.84595L10.7012 4.09595C10.5323 3.95128 10.6222 3.67465 10.8439 3.65688L13.5253 3.44191C13.6187 3.43442 13.7001 3.37528 13.7361 3.28872L14.7692 0.804982Z" fill="#EDEEF1"/>
<g clip-path="url(#clip3_5333_8965)">
<path d="M14.7692 0.804982C14.8546 0.599659 15.1454 0.599659 15.2308 0.804982L16.2639 3.28872C16.2999 3.37528 16.3813 3.43442 16.4747 3.44191L19.1561 3.65688C19.3778 3.67465 19.4677 3.95128 19.2988 4.09595L17.2558 5.84595C17.1846 5.90694 17.1536 6.00263 17.1753 6.09382L17.7995 8.71042C17.8511 8.92672 17.6157 9.09769 17.426 8.98177L15.1303 7.5796C15.0503 7.53073 14.9497 7.53073 14.8697 7.5796L12.574 8.98177C12.3843 9.09769 12.1489 8.92672 12.2005 8.71042L12.8247 6.09382C12.8464 6.00263 12.8154 5.90694 12.7442 5.84595L10.7012 4.09595C10.5323 3.95128 10.6222 3.67465 10.8439 3.65688L13.5253 3.44191C13.6187 3.43442 13.7001 3.37528 13.7361 3.28872L14.7692 0.804982Z" fill="#FDB122"/>
</g>
</g>
<g clip-path="url(#clip4_5333_8965)">
<path d="M24.7692 0.804982C24.8546 0.599659 25.1454 0.599659 25.2308 0.804982L26.2639 3.28872C26.2999 3.37528 26.3813 3.43442 26.4747 3.44191L29.1561 3.65688C29.3778 3.67465 29.4677 3.95128 29.2988 4.09595L27.2558 5.84595C27.1846 5.90694 27.1536 6.00263 27.1753 6.09382L27.7995 8.71042C27.8511 8.92672 27.6157 9.09769 27.426 8.98177L25.1303 7.5796C25.0503 7.53073 24.9497 7.53073 24.8697 7.5796L22.574 8.98177C22.3843 9.09769 22.1489 8.92672 22.2005 8.71042L22.8247 6.09382C22.8464 6.00263 22.8154 5.90694 22.7442 5.84595L20.7012 4.09595C20.5323 3.95128 20.6222 3.67465 20.8439 3.65688L23.5253 3.44191C23.6187 3.43442 23.7001 3.37528 23.7361 3.28872L24.7692 0.804982Z" fill="#EDEEF1"/>
<g clip-path="url(#clip5_5333_8965)">
<path d="M24.7692 0.804982C24.8546 0.599659 25.1454 0.599659 25.2308 0.804982L26.2639 3.28872C26.2999 3.37528 26.3813 3.43442 26.4747 3.44191L29.1561 3.65688C29.3778 3.67465 29.4677 3.95128 29.2988 4.09595L27.2558 5.84595C27.1846 5.90694 27.1536 6.00263 27.1753 6.09382L27.7995 8.71042C27.8511 8.92672 27.6157 9.09769 27.426 8.98177L25.1303 7.5796C25.0503 7.53073 24.9497 7.53073 24.8697 7.5796L22.574 8.98177C22.3843 9.09769 22.1489 8.92672 22.2005 8.71042L22.8247 6.09382C22.8464 6.00263 22.8154 5.90694 22.7442 5.84595L20.7012 4.09595C20.5323 3.95128 20.6222 3.67465 20.8439 3.65688L23.5253 3.44191C23.6187 3.43442 23.7001 3.37528 23.7361 3.28872L24.7692 0.804982Z" fill="#FDB122"/>
</g>
</g>
<g clip-path="url(#clip6_5333_8965)">
<path d="M34.7692 0.804982C34.8546 0.599659 35.1454 0.599659 35.2308 0.804982L36.2639 3.28872C36.2999 3.37528 36.3813 3.43442 36.4747 3.44191L39.1561 3.65688C39.3778 3.67465 39.4677 3.95128 39.2988 4.09595L37.2558 5.84595C37.1846 5.90694 37.1536 6.00263 37.1753 6.09382L37.7995 8.71042C37.8511 8.92672 37.6157 9.09769 37.426 8.98177L35.1303 7.5796C35.0503 7.53073 34.9497 7.53073 34.8697 7.5796L32.574 8.98177C32.3843 9.09769 32.1489 8.92672 32.2005 8.71042L32.8247 6.09382C32.8464 6.00263 32.8154 5.90694 32.7442 5.84595L30.7012 4.09595C30.5323 3.95128 30.6222 3.67465 30.8439 3.65688L33.5253 3.44191C33.6187 3.43442 33.7001 3.37528 33.7361 3.28872L34.7692 0.804982Z" fill="#EDEEF1"/>
<g clip-path="url(#clip7_5333_8965)">
<path d="M34.7692 0.804982C34.8546 0.599659 35.1454 0.599659 35.2308 0.804982L36.2639 3.28872C36.2999 3.37528 36.3813 3.43442 36.4747 3.44191L39.1561 3.65688C39.3778 3.67465 39.4677 3.95128 39.2988 4.09595L37.2558 5.84595C37.1846 5.90694 37.1536 6.00263 37.1753 6.09382L37.7995 8.71042C37.8511 8.92672 37.6157 9.09769 37.426 8.98177L35.1303 7.5796C35.0503 7.53073 34.9497 7.53073 34.8697 7.5796L32.574 8.98177C32.3843 9.09769 32.1489 8.92672 32.2005 8.71042L32.8247 6.09382C32.8464 6.00263 32.8154 5.90694 32.7442 5.84595L30.7012 4.09595C30.5323 3.95128 30.6222 3.67465 30.8439 3.65688L33.5253 3.44191C33.6187 3.43442 33.7001 3.37528 33.7361 3.28872L34.7692 0.804982Z" fill="#FDB122"/>
</g>
</g>
<g clip-path="url(#clip8_5333_8965)">
<path d="M44.7692 0.804982C44.8546 0.599659 45.1454 0.599659 45.2308 0.804982L46.2639 3.28872C46.2999 3.37528 46.3813 3.43442 46.4747 3.44191L49.1561 3.65688C49.3778 3.67465 49.4677 3.95128 49.2988 4.09595L47.2558 5.84595C47.1846 5.90694 47.1536 6.00263 47.1753 6.09382L47.7995 8.71042C47.8511 8.92672 47.6157 9.09769 47.426 8.98177L45.1303 7.5796C45.0503 7.53073 44.9497 7.53073 44.8697 7.5796L42.574 8.98177C42.3843 9.09769 42.1489 8.92672 42.2005 8.71042L42.8247 6.09382C42.8464 6.00263 42.8154 5.90694 42.7442 5.84595L40.7012 4.09595C40.5323 3.95128 40.6222 3.67465 40.8439 3.65688L43.5253 3.44191C43.6187 3.43442 43.7001 3.37528 43.7361 3.28872L44.7692 0.804982Z" fill="#EDEEF1"/>
<g clip-path="url(#clip9_5333_8965)">
<path d="M44.7692 0.804982C44.8546 0.599659 45.1454 0.599659 45.2308 0.804982L46.2639 3.28872C46.2999 3.37528 46.3813 3.43442 46.4747 3.44191L49.1561 3.65688C49.3778 3.67465 49.4677 3.95128 49.2988 4.09595L47.2558 5.84595C47.1846 5.90694 47.1536 6.00263 47.1753 6.09382L47.7995 8.71042C47.8511 8.92672 47.6157 9.09769 47.426 8.98177L45.1303 7.5796C45.0503 7.53073 44.9497 7.53073 44.8697 7.5796L42.574 8.98177C42.3843 9.09769 42.1489 8.92672 42.2005 8.71042L42.8247 6.09382C42.8464 6.00263 42.8154 5.90694 42.7442 5.84595L40.7012 4.09595C40.5323 3.95128 40.6222 3.67465 40.8439 3.65688L43.5253 3.44191C43.6187 3.43442 43.7001 3.37528 43.7361 3.28872L44.7692 0.804982Z" fill="#FDB122"/>
</g>
</g>
<defs>
<clipPath id="clip0_5333_8965">
<rect width="10" height="10" fill="white"/>
</clipPath>
<clipPath id="clip1_5333_8965">
<rect width="10" height="10" fill="white"/>
</clipPath>
<clipPath id="clip2_5333_8965">
<rect width="10" height="10" fill="white" transform="translate(10)"/>
</clipPath>
<clipPath id="clip3_5333_8965">
<rect width="10" height="10" fill="white" transform="translate(10)"/>
</clipPath>
<clipPath id="clip4_5333_8965">
<rect width="10" height="10" fill="white" transform="translate(20)"/>
</clipPath>
<clipPath id="clip5_5333_8965">
<rect width="10" height="10" fill="white" transform="translate(20)"/>
</clipPath>
<clipPath id="clip6_5333_8965">
<rect width="10" height="10" fill="white" transform="translate(30)"/>
</clipPath>
<clipPath id="clip7_5333_8965">
<rect width="10" height="10" fill="white" transform="translate(30)"/>
</clipPath>
<clipPath id="clip8_5333_8965">
<rect width="10" height="10" fill="white" transform="translate(40)"/>
</clipPath>
<clipPath id="clip9_5333_8965">
<rect width="10" height="10" fill="white" transform="translate(40)"/>
</clipPath>
</defs>
</svg>
