<svg width="20" height="21" viewBox="0 0 20 21" fill="none" xmlns="http://www.w3.org/2000/svg">
<g clip-path="url(#clip0_5454_2010)">
<path d="M20 10.0215C20 4.49863 15.5229 0.0214844 10 0.0214844C4.47715 0.0214844 0 4.49863 0 10.0215C0 15.0127 3.65684 19.1498 8.4375 19.9V12.9121H5.89844V10.0215H8.4375V7.81836C8.4375 5.31211 9.93047 3.92773 12.2146 3.92773C13.3084 3.92773 14.4531 4.12305 14.4531 4.12305V6.58398H13.1922C11.95 6.58398 11.5625 7.35488 11.5625 8.14648V10.0215H14.3359L13.8926 12.9121H11.5625V19.9C16.3432 19.1498 20 15.0127 20 10.0215Z" fill="#8A94A6"/>
<path d="M13.8926 12.9121L14.3359 10.0215H11.5625V8.14648C11.5625 7.35566 11.95 6.58398 13.1922 6.58398H14.4531V4.12305C14.4531 4.12305 13.3088 3.92773 12.2146 3.92773C9.93047 3.92773 8.4375 5.31211 8.4375 7.81836V10.0215H5.89844V12.9121H8.4375V19.9C9.47287 20.062 10.5271 20.062 11.5625 19.9V12.9121H13.8926Z" fill="white"/>
</g>
<defs>
<clipPath id="clip0_5454_2010">
<rect width="20" height="20" fill="white" transform="translate(0 0.0214844)"/>
</clipPath>
</defs>
</svg>
