<svg width="22" height="22" viewBox="0 0 22 22" fill="none" xmlns="http://www.w3.org/2000/svg">
<path d="M21.7851 11.2533C21.7851 10.5056 21.7245 9.75382 21.5951 9.01821H11.2197V13.2541H17.1612C16.9147 14.6202 16.1225 15.8287 14.9624 16.5967V19.3451H18.5072C20.5887 17.4293 21.7851 14.6 21.7851 11.2533Z" fill="#98A2B3"/>
<path d="M11.2196 22.0005C14.1863 22.0005 16.6882 21.0265 18.5111 19.3451L14.9664 16.5966C13.9801 17.2675 12.707 17.6475 11.2236 17.6475C8.35389 17.6475 5.9207 15.7114 5.04766 13.1085H1.38978V15.9418C3.25712 19.6563 7.0605 22.0005 11.2196 22.0005Z" fill="#98A2B3"/>
<path d="M5.04374 13.1084C4.58297 11.7423 4.58297 10.2629 5.04374 8.8968V6.06346H1.3899C-0.17025 9.17164 -0.170373 12.8336 1.38978 15.9418L5.04374 13.1084Z" fill="#98A2B3"/>
<path d="M11.2196 4.35381C12.7878 4.32956 14.3035 4.91967 15.4393 6.00289L18.5798 2.86237C16.5912 0.995037 13.9519 -0.0315935 11.2196 0.00074127C7.0605 0.00074127 3.25724 2.34496 1.3899 6.06346L5.04374 8.8968C5.91273 6.2898 8.34985 4.35381 11.2196 4.35381Z" fill="#98A2B3"/>
</svg>
