<svg width="32" height="40" viewBox="0 0 32 40" fill="none" xmlns="http://www.w3.org/2000/svg">
<path fill-rule="evenodd" clip-rule="evenodd" d="M23.8321 0.374023H23.5529C21.4639 0.649801 19.2835 1.88907 18.0942 3.28175C16.8119 4.77612 15.7536 6.69104 15.9397 9.41951C18.7303 9.63841 20.4556 8.19575 21.7155 6.70828C22.9996 5.21046 24.0562 3.14214 23.8321 0.374023ZM32.0005 29.2635V29.1859C29.2703 27.8898 27.0848 25.6904 26.7814 21.9313C26.4401 17.7929 28.4378 15.3695 30.9646 13.7614C29.6547 11.7137 27.5346 10.3865 24.5476 9.93495C22.253 9.58964 20.4696 10.2419 18.6956 10.8906C18.5481 10.9446 18.4007 10.9985 18.253 11.0518C18.0933 11.1101 17.9342 11.1743 17.7753 11.2383C17.2809 11.4376 16.7898 11.6356 16.2967 11.6499C15.5432 11.6729 14.7569 11.3383 14.0613 11.0423C13.8691 10.9604 13.6837 10.8815 13.5079 10.814C12.6513 10.4899 11.674 10.1625 10.7174 10.0142C8.48532 9.67296 6.48076 10.4365 5.02259 11.3328C2.25965 13.0185 0.180979 16.4967 0 20.7747V22.5311C0.427455 28.5085 2.72502 33.1795 5.69825 36.7956C6.70656 38.0194 8.09061 39.3776 9.8056 39.6258H10.6019C11.6 39.4851 12.428 39.1657 13.2485 38.8491C14.3479 38.4249 15.4337 38.0061 16.8965 38.0297C18.0977 38.0503 19.0887 38.4356 20.0713 38.8176C21.0641 39.2035 22.0484 39.5862 23.2325 39.5862C25.8259 39.5862 27.3341 37.4984 28.5476 35.8188C28.61 35.7324 28.6716 35.6471 28.7325 35.5633C30.0976 33.6742 31.2163 31.6386 32.0005 29.2635Z" fill="#363A44"/>
</svg>
