<svg width="44" height="44" viewBox="0 0 44 44" fill="none" xmlns="http://www.w3.org/2000/svg">
<path d="M13.2774 20.3185C14.0997 17.2502 17.2536 14.0963 20.3219 13.274L39.4509 8.14766C42.5191 7.3254 44.3399 9.14614 43.5176 12.2144L38.3912 31.3434C37.569 34.4117 34.4151 37.5656 31.3468 38.3878L12.2178 43.5142C9.14956 44.3365 7.32881 42.5157 8.15108 39.4474L13.2774 20.3185Z" fill="#3696FB"/>
<path d="M5.60899 12.6495C6.43125 9.58125 9.58515 6.42735 12.6534 5.60508L31.7824 0.478716C34.8507 -0.343548 36.6714 1.4772 35.8492 4.54547L30.7228 23.6744C29.9005 26.7427 26.7466 29.8966 23.6784 30.7189L4.54938 35.8452C1.48111 36.6675 -0.339642 34.8468 0.482622 31.7785L5.60899 12.6495Z" fill="#1861DD"/>
</svg>
