<svg width="50" height="40" viewBox="0 0 50 40" fill="none" xmlns="http://www.w3.org/2000/svg">
<path fill-rule="evenodd" clip-rule="evenodd" d="M49.5553 30.2587C48.5786 31.4931 46.1858 32.3737 46.1858 32.3737L28.385 38.7791V34.0552L41.4851 29.3792C42.9718 28.8456 43.2 28.0913 41.9917 27.6954C40.7856 27.2983 38.6016 27.4121 37.1139 27.9479L28.385 31.0278V26.1253L28.8881 25.9547C28.8881 25.9547 31.4104 25.0604 34.9572 24.6668C38.504 24.2754 42.8468 24.7202 46.2562 26.015C50.0982 27.2312 50.5309 29.0242 49.5553 30.2587ZM30.0794 22.215V10.1346C30.0794 8.71589 29.8182 7.40979 28.4895 7.04003C27.4719 6.7135 26.8404 7.66009 26.8404 9.07769V39.3297L18.6964 36.7403V0.669922C22.1591 1.31387 27.2039 2.83615 29.9159 3.75201C36.8129 6.12416 39.1513 9.07655 39.1513 15.7288C39.1513 22.2127 35.1559 24.6702 30.0794 22.215ZM3.75303 33.5615C-0.191214 32.4488 -0.847642 30.1301 0.950153 28.7944C2.61166 27.5611 5.43726 26.6327 5.43726 26.6327L17.1144 22.4732V27.2153L8.71145 30.2279C7.2271 30.7615 6.99883 31.517 8.20493 31.9129C9.41217 32.3088 11.5972 32.1962 13.0838 31.6615L17.1144 30.1961V34.4386C16.8589 34.4842 16.5738 34.5297 16.3103 34.574C12.2786 35.2339 7.98461 34.9586 3.75303 33.5615ZM46.9614 35.4398C47.4714 35.4398 47.9495 35.6378 48.3095 36.003C48.6695 36.3625 48.8682 36.8427 48.8682 37.3524C48.8682 37.8643 48.6695 38.3422 48.3095 38.7017C47.9495 39.0646 47.4714 39.2626 46.9614 39.2626C46.4515 39.2626 45.9745 39.0646 45.6134 38.7017C45.2533 38.3422 45.0557 37.8643 45.0557 37.3524C45.0557 36.2988 45.9098 35.4398 46.9614 35.4398ZM45.376 37.3524C45.376 37.7767 45.5407 38.1761 45.8405 38.4741C46.1392 38.7768 46.5389 38.9406 46.9614 38.9406C47.837 38.9406 48.5468 38.2284 48.5468 37.3524C48.5468 36.9268 48.3833 36.5275 48.0823 36.2283C47.7837 35.9256 47.3839 35.763 46.9614 35.763C46.5389 35.763 46.1392 35.9256 45.8405 36.2283C45.5407 36.5275 45.376 36.9268 45.376 37.3524ZM47.5372 36.3227C47.7462 36.4149 47.8518 36.5924 47.8518 36.8449C47.8518 36.9746 47.8245 37.0839 47.7689 37.1692C47.7291 37.2306 47.6724 37.2807 47.6088 37.3239C47.6587 37.3535 47.703 37.3888 47.736 37.4297C47.7814 37.4889 47.8075 37.5833 47.8109 37.7119L47.8211 37.9838C47.8246 38.0566 47.8291 38.1124 47.8405 38.1465C47.8518 38.1965 47.8734 38.2284 47.9007 38.2386L47.9291 38.2523V38.283V38.3297V38.3763H47.8825H47.5452H47.5179L47.5043 38.3524C47.4929 38.3297 47.485 38.3035 47.477 38.2694C47.4714 38.2387 47.4657 38.1852 47.4623 38.1033L47.4452 37.7654C47.4407 37.6482 47.4009 37.5754 47.326 37.5367C47.2794 37.5151 47.2022 37.5048 47.0977 37.5048H46.5196V38.3297V38.3763H46.4719H46.1971H46.1505V38.3297V36.2966V36.2499H46.1971H47.1363C47.2976 36.2499 47.4327 36.2738 47.5372 36.3227ZM46.5196 37.1794H47.1079C47.226 37.1794 47.3203 37.1578 47.3873 37.1134C47.4486 37.0691 47.4782 36.9883 47.4782 36.8711C47.4782 36.7437 47.4361 36.6606 47.3476 36.6162C47.2987 36.5924 47.2306 36.5787 47.1443 36.5787H46.5196V37.1794Z" fill="#363A44"/>
</svg>
