<svg width="96" height="24" viewBox="0 0 96 24" fill="none" xmlns="http://www.w3.org/2000/svg">
<path d="M9.45961 6.34705H12.9308L17.7301 14.2265L17.7284 6.34705H21.1689V17.6471H17.7318L12.9086 9.7677V17.6471H9.45954L9.45961 6.34705Z" fill="#363A44"/>
<path d="M39.8803 7.50976H43.2322V9.03062H45.0445V10.1483H43.2322L43.2356 17.6471H39.8803L39.882 10.1483H38.0628V9.03408L39.882 9.03063L39.8803 7.50976Z" fill="#363A44"/>
<path d="M23.0852 10.1328H26.4337V17.6489H23.0852V10.1328Z" fill="#363A44"/>
<path d="M23.0767 6.34358H26.4337V8.65516H23.0767V6.34358Z" fill="#363A44"/>
<path d="M81.7563 9.62236C79.054 9.62236 76.8632 11.5083 76.8632 13.8389C76.8632 16.1678 79.054 18.0572 81.7563 18.0572C84.4603 18.0572 86.6477 16.1678 86.6477 13.8389C86.6477 11.5083 84.4603 9.62236 81.7563 9.62236ZM83.1014 13.8285C83.1014 13.8285 83.098 14.9636 83.098 15.4203C83.098 16.6177 82.4024 17.1108 81.729 17.1108C81.0573 17.1108 80.3566 16.6177 80.3566 15.4203C80.3566 14.9636 80.3582 13.7991 80.3582 13.7991C80.3582 13.7991 80.3601 12.69 80.3601 12.235C80.3601 11.0411 81.0642 10.5515 81.7291 10.5515C82.3975 10.5515 83.0982 11.0411 83.0982 12.235C83.0982 12.69 83.0965 13.5327 83.1016 13.832L83.1014 13.8285Z" fill="#363A44"/>
<path d="M72.4918 12.5084C72.4918 11.3457 71.7007 11.0515 71.1807 11.0515C70.6471 11.0515 69.8679 11.3457 69.8679 12.5084V15.1833C69.8679 16.3477 70.6471 16.6471 71.1807 16.6471C71.7007 16.6471 72.4918 16.3477 72.4918 15.1833V12.5084ZM72.4696 6.34705H75.772V17.6454H72.4628C72.4628 17.6454 72.4612 17.2803 72.4612 17.2129C71.1808 18.0261 69.735 18.0261 68.6064 17.4966C68.3046 17.3513 66.3184 16.3841 66.3184 13.768C66.3184 11.7851 68.1597 9.6189 70.5738 9.83518C71.3683 9.90612 71.9326 10.2003 72.4697 10.5082L72.4696 6.34705Z" fill="#363A44"/>
<path d="M34.2712 9.78673C35.5243 9.7504 38.0612 10.5809 38.0441 13.5552C38.0407 14.0863 38.0425 17.6454 38.0425 17.6454H34.7179V12.7108C34.7179 12.0551 34.1007 11.3284 33.1869 11.3284C32.2748 11.3284 31.5979 12.0551 31.5979 12.7108C31.5979 13.0309 31.6013 17.6454 31.6013 17.6454H28.2784L28.275 10.1328L31.6013 10.1293C31.6013 10.1293 31.5979 10.7332 31.6013 10.92C32.2424 10.3006 33.1664 9.81787 34.2712 9.78673Z" fill="#363A44"/>
<path d="M61.4781 9.78673C62.7295 9.7504 65.2698 10.5809 65.2528 13.5552C65.2493 14.0863 65.2528 17.6454 65.2528 17.6454H61.9248V12.7108C61.9248 12.0551 61.3076 11.3284 60.3938 11.3284C59.4816 11.3284 58.8065 12.0551 58.8065 12.7108C58.8065 13.0309 58.8099 17.6454 58.8099 17.6454H55.487V10.1328L58.8099 10.1293C58.8099 10.1293 58.8065 10.7332 58.8099 10.92C59.4492 10.3006 60.3716 9.81787 61.4781 9.78673Z" fill="#363A44"/>
<path d="M50.9452 15.0172C50.9452 15.0172 50.9468 15.0518 50.9468 15.474C50.9468 16.8478 50.0569 17.154 49.5624 17.154C49.0697 17.154 48.161 16.8478 48.161 15.474C48.161 15.0622 48.1644 13.9237 48.1644 13.9237C48.1644 13.9237 54.4709 13.9271 54.4709 13.9202C54.4709 11.5914 52.2545 9.66216 49.5317 9.66216C46.809 9.66216 44.6028 11.5481 44.6028 13.8804C44.6028 16.2128 46.809 18.097 49.5317 18.097C51.7907 18.097 53.7002 16.789 54.2816 15.0137L50.9452 15.0172ZM48.1645 12.7506C48.1576 12.0931 48.1713 11.6536 48.3844 11.2782C48.6452 10.8145 49.126 10.5947 49.5625 10.5913C49.9972 10.5947 50.478 10.8145 50.7372 11.2782C50.9503 11.6536 50.9622 12.0931 50.9571 12.7506H48.1645Z" fill="#363A44"/>
<path d="M87.3381 7.58762C87.6638 7.58762 87.9553 7.56686 87.9553 7.1689C87.9553 6.85054 87.6706 6.79344 87.4029 6.79344H86.8812V7.58762H87.3381ZM86.8812 9.03408H86.4976V6.46297H87.4592C88.0593 6.46297 88.356 6.68617 88.356 7.19486C88.356 7.6551 88.0713 7.85407 87.6996 7.90252L88.4191 9.03408H87.9894L87.3194 7.91809H86.8812V9.03408Z" fill="#363A44"/>
<path d="M87.3433 9.60852C88.3389 9.60852 89.1232 8.8178 89.1232 7.74334C89.1232 6.68617 88.3389 5.892 87.3433 5.892C86.3391 5.892 85.5531 6.68617 85.5531 7.74334C85.5531 8.8178 86.3391 9.60852 87.3433 9.60852ZM85.1132 7.74334C85.1132 6.46297 86.1345 5.52 87.3433 5.52C88.5418 5.52 89.5648 6.46297 89.5648 7.74334C89.5648 9.03408 88.5418 9.98052 87.3433 9.98052C86.1345 9.98052 85.1132 9.03408 85.1132 7.74334Z" fill="#363A44"/>
<path fill-rule="evenodd" clip-rule="evenodd" d="M0 12.0199C0 18.5861 5.03119 23.9965 12.5567 24H83.445C90.9705 23.9965 96 18.5861 96 12.0199C96 5.45718 90.9586 -0.0207012 83.457 5.88308e-05H12.5464C5.04142 -0.0207042 0 5.45718 0 12.0199ZM3.07435 11.9343C3.07435 6.93565 6.72967 2.89038 12.69 2.88H83.5307C89.4911 2.89038 93.1481 6.93565 93.1481 11.9343C93.1481 16.9346 89.5149 21.0076 83.5307 20.9868C83.5307 20.9868 18.6692 20.966 12.69 20.9868C6.71092 21.0076 3.07435 16.9346 3.07435 11.9343Z" fill="#363A44"/>
</svg>
