<svg width="38" height="38" viewBox="0 0 38 38" fill="none" xmlns="http://www.w3.org/2000/svg">
<path d="M17.1053 37.9219C14.1782 37.6417 11.2147 36.5911 8.66891 34.931C6.53563 33.5399 6.05389 32.9681 6.05389 31.8269C6.05389 29.5345 8.57573 25.5196 12.8904 20.9426C15.3409 18.3431 18.7542 15.2962 19.1234 15.3787C19.8409 15.5391 25.5781 21.1322 27.7258 23.7651C31.1221 27.9287 32.6835 31.3377 31.8902 32.8575C31.2873 34.0129 27.5458 36.2709 24.797 37.1384C22.5315 37.8534 19.5562 38.1565 17.1053 37.9219ZM3.17265 29.4435C1.39995 26.7254 0.504317 24.0495 0.0719012 20.1792C-0.0708834 18.9013 -0.0197168 18.1703 0.396128 15.5472C0.914419 12.2779 2.77725 8.49573 5.01562 6.16811C5.96895 5.17676 6.0541 5.15261 7.21615 5.54386C8.62733 6.01899 10.1344 7.05923 12.4715 9.17143L13.8352 10.4038L13.0905 11.3181C9.63386 15.5623 5.98486 21.5784 4.60966 25.3003C3.86204 27.3237 3.5605 29.3548 3.88218 30.2005C4.09936 30.7714 3.89987 30.5585 3.17265 29.4435ZM34.2891 29.9058C34.4642 29.0514 34.2428 27.4822 33.7236 25.8995C32.5994 22.4719 28.8416 16.0954 25.391 11.7601L24.3048 10.3953L25.4799 9.31682C27.0144 7.90864 28.0798 7.06544 29.2293 6.34937C30.1364 5.78431 31.4326 5.2841 31.9898 5.2841C32.3334 5.2841 33.5427 6.53849 34.519 7.90743C36.0311 10.0276 37.1435 12.5978 37.7071 15.2734C38.0713 17.0021 38.1016 20.7026 37.7658 22.4271C37.4902 23.8424 36.9082 25.6782 36.3405 26.9232C35.9152 27.8561 34.8572 29.6679 34.3936 30.2574C34.1553 30.5605 34.1551 30.5599 34.2891 29.9058ZM17.4187 4.63686C15.8266 3.8288 13.3704 2.96139 12.0136 2.72803C11.538 2.64622 10.7266 2.60059 10.2105 2.62663C9.0911 2.68313 9.1411 2.62462 10.9369 1.77665C12.4299 1.07167 13.6753 0.657103 15.3659 0.302316C17.2677 -0.0967932 20.8425 -0.101477 22.714 0.292688C24.7354 0.718419 27.1157 1.60372 28.457 2.42867L28.8556 2.67386L27.941 2.6277C26.1235 2.53597 23.4747 3.26984 20.6309 4.65303C19.7731 5.07024 19.0269 5.40345 18.9726 5.3935C18.9183 5.38355 18.219 5.04306 17.4187 4.63686Z" fill="#363A44"/>
</svg>
