<svg width="94" height="18" viewBox="0 0 94 18" fill="none" xmlns="http://www.w3.org/2000/svg">
<path d="M70.6393 0.000329698C70.3299 -0.000704906 70.0202 -0.00174051 69.7131 0.0379938C68.6255 0.166419 67.5883 0.657594 66.7978 1.4072C65.8109 2.32791 65.2196 3.64732 65.198 4.99045L67.2441 4.9911C74.0634 4.99329 80.8825 4.99548 87.7019 4.9944C87.7015 3.33001 87.7011 1.66563 87.7019 0.00124454C84.0961 -2.55928e-05 80.4902 0.000174002 76.8842 0.000373599C74.8808 0.000484488 72.8775 0.000595378 70.8741 0.000454251C70.7959 0.000853259 70.7176 0.00059151 70.6393 0.000329698Z" fill="#363A44"/>
<path d="M27.3826 0.000349496C27.162 -0.000144442 26.9416 -0.000638069 26.722 0.0194486C25.8289 0.0941325 24.9578 0.408674 24.2255 0.920398C23.221 1.61508 22.4729 2.6733 22.183 3.85401C22.1749 3.07054 22.1762 2.28692 22.1774 1.50324C22.1782 1.01024 22.179 0.517214 22.1774 0.0241904C20.5595 0.0239928 18.9416 0.0239928 17.3238 0.0239928C15.706 0.0239928 14.0883 0.0239928 12.4706 0.0237952C11.8919 0.892175 11.3136 1.76066 10.7354 2.62909C10.2108 3.41684 9.6863 4.20454 9.16162 4.99205C16.7759 4.99179 24.39 4.99258 32.0041 4.99337C35.8118 4.99377 39.6195 4.99416 43.4272 4.99443C43.4267 4.21073 43.4268 3.42703 43.427 2.64332C43.4271 1.76225 43.4273 0.881166 43.4264 8.6076e-05C40.3956 0.000537681 37.3647 0.000473167 34.334 0.000408655C32.0609 0.000360271 29.7879 0.000311888 27.5149 0.000481238C27.4708 0.000547102 27.4267 0.000448293 27.3826 0.000349496Z" fill="#363A44"/>
<path d="M44.233 0.0241909L45.923 0.024103C47.0497 0.0240152 48.1763 0.0239274 49.303 0.0241909V4.99245C48.6885 4.99231 48.074 4.99237 47.4594 4.99244C46.3838 4.99255 45.3081 4.99267 44.2326 4.99166C44.2328 4.28162 44.2327 3.57151 44.2327 2.86139C44.2326 1.91563 44.2325 0.969845 44.233 0.0241909Z" fill="#363A44"/>
<path d="M60.0748 3.09308C60.0751 3.72619 60.0754 4.35933 60.075 4.99246L61.3438 4.99251C62.6109 4.99259 63.8779 4.99266 65.145 4.99207C65.1448 4.16402 65.1448 3.33608 65.1448 2.50814C65.1448 1.68019 65.1448 0.852246 65.1446 0.024203C64.449 0.0238776 63.7534 0.0240211 63.0578 0.0241647C62.064 0.0243698 61.0702 0.0245749 60.0766 0.0234127C60.0739 1.04652 60.0743 2.06977 60.0748 3.09308Z" fill="#363A44"/>
<path fill-rule="evenodd" clip-rule="evenodd" d="M90.7923 1.19886C90.6485 1.20085 90.5049 1.20284 90.3618 1.19895C90.3614 1.97345 90.3614 2.74795 90.3618 3.52245C90.4872 3.52245 90.6129 3.52245 90.7399 3.52285C90.7403 3.33475 90.7403 3.14653 90.7402 2.95832C90.7402 2.81717 90.7401 2.67603 90.7403 2.53496C90.7701 2.53532 90.8009 2.53487 90.8322 2.53441C91.008 2.53181 91.1999 2.52898 91.324 2.66853C91.4934 2.8528 91.6155 3.07096 91.7372 3.28842L91.7375 3.28884C91.7814 3.36735 91.8253 3.44576 91.8713 3.52245H92.3341C92.2919 3.45641 92.2504 3.39001 92.209 3.32362C92.1144 3.17231 92.0199 3.02106 91.918 2.8744L91.9084 2.86097C91.7998 2.71069 91.6846 2.55114 91.5028 2.48399C91.815 2.46976 92.1217 2.24255 92.164 1.92564C92.2207 1.61347 91.9875 1.28588 91.6705 1.23689C91.3802 1.19072 91.0861 1.19479 90.7923 1.19886ZM90.7407 2.21568C90.7399 1.98135 90.7399 1.74703 90.7403 1.5127C90.8175 1.5146 90.8951 1.51362 90.9728 1.51263C91.154 1.51034 91.3357 1.50804 91.514 1.54234C91.6833 1.57948 91.8035 1.75809 91.7639 1.92761C91.7412 2.06592 91.6162 2.1651 91.4817 2.18762C91.3105 2.22029 91.1364 2.21805 90.9628 2.21581C90.8886 2.21486 90.8145 2.2139 90.7407 2.21568Z" fill="#363A44"/>
<path fill-rule="evenodd" clip-rule="evenodd" d="M90.8584 0.217826C91.5575 0.0609506 92.3244 0.283422 92.8419 0.770646C93.3437 1.25787 93.5896 1.99404 93.4703 2.68121C93.3621 3.31543 92.9684 3.90895 92.3879 4.21203C91.7363 4.57874 90.8959 4.57636 90.2452 4.20927C89.6407 3.89156 89.2359 3.26051 89.1516 2.59467C89.0762 2.03316 89.2474 1.45189 89.5888 1.00062C89.8954 0.596383 90.3629 0.326889 90.8584 0.217826ZM90.9359 0.566747C90.3693 0.686478 89.8651 1.07886 89.6475 1.61548C89.3089 2.34928 89.5616 3.28856 90.2168 3.76512C90.745 4.16066 91.492 4.24404 92.0909 3.95835C92.6274 3.7256 93.0079 3.20795 93.1085 2.6417C93.2112 2.08848 93.0279 1.49694 92.643 1.08598C92.2138 0.641826 91.5443 0.430024 90.9359 0.566747Z" fill="#363A44"/>
<path fill-rule="evenodd" clip-rule="evenodd" d="M44.2325 5.2058L44.7383 5.23133C46.2601 5.30813 47.7819 5.38494 49.3034 5.46462C49.3042 7.5036 49.3038 9.54298 49.3034 11.582V11.6093C49.2922 11.8949 49.3317 12.1882 49.4702 12.4426C49.717 12.9239 50.2484 13.2432 50.7941 13.2349C52.5964 13.2355 54.3989 13.2354 56.2013 13.2354L58.0181 13.2353C58.109 13.233 58.2001 13.2342 58.2912 13.2354C58.4699 13.2376 58.6486 13.2399 58.8258 13.2163C59.3136 13.1436 59.75 12.8097 59.9468 12.3624C60.0443 12.1502 60.0802 11.9155 60.0754 11.6839C60.0752 10.8731 60.0753 10.0622 60.0753 9.25127C60.0754 8.17248 60.0755 7.09364 60.075 6.01468C61.3729 6.079 62.6703 6.14565 63.9679 6.2123L63.9694 6.21238C64.3613 6.23251 64.7531 6.25264 65.145 6.27271C65.1454 7.29307 65.1453 8.31343 65.1453 9.33379C65.1452 10.5571 65.1452 11.7804 65.1458 13.0037C67.9439 13.0036 70.7421 13.0036 73.5404 13.0036C76.3387 13.0036 79.137 13.0036 81.9353 13.0034C81.9529 13.0034 81.9706 13.0035 81.9884 13.0036L82.0151 13.0039C82.1887 13.0056 82.3662 13.0074 82.5281 12.9362C82.8555 12.807 83.0839 12.4691 83.0779 12.1194C83.0783 11.7709 82.8464 11.4366 82.5174 11.3121C82.3898 11.2577 82.2511 11.2507 82.1148 11.2438C82.0983 11.243 82.0819 11.2421 82.0656 11.2412L82.0543 11.2406C79.7918 11.1016 77.5292 10.9647 75.2665 10.8278L75.2641 10.8276C73.8154 10.7399 72.3668 10.6523 70.9181 10.5641C69.5195 10.523 68.1186 10.0456 67.0358 9.15812C66.1483 8.43104 65.5119 7.40285 65.2907 6.28101C66.0401 6.31842 66.7894 6.35596 67.5387 6.3935C72.6702 6.65056 77.8017 6.90763 82.935 7.12348C84.213 7.20922 85.4442 7.79919 86.3142 8.72819C87.0221 9.47503 87.4964 10.4364 87.6453 11.45C87.7082 11.8515 87.7049 12.2574 87.7017 12.6626C87.7008 12.7719 87.6999 12.8812 87.7004 12.9903C87.6868 14.2477 87.1714 15.4873 86.297 16.3977C85.3548 17.3951 83.995 17.993 82.6136 17.9977C79.6885 17.9985 76.7634 17.9984 73.8382 17.9983C70.9129 17.9982 67.9876 17.9981 65.0624 17.9989C65.061 17.4221 65.0614 16.8455 65.0618 16.2688C65.0623 15.5002 65.0628 14.7317 65.0592 13.9632C64.8148 15.2265 64.0571 16.3823 62.9871 17.1133C62.1259 17.7136 61.0679 18.0246 60.0155 17.9985C56.6461 17.9981 53.2767 17.9981 49.9077 17.9981H49.8735C49.7807 17.9976 49.6878 17.998 49.5949 17.9984C49.207 18.0001 48.8183 18.0018 48.4354 17.9349C47.2065 17.7412 46.0687 17.0663 45.3041 16.097C44.7939 15.4557 44.4469 14.6883 44.3068 13.8841C44.0489 15.1957 43.2444 16.3878 42.1233 17.1311C41.5037 17.546 40.7911 17.825 40.0513 17.9376C39.67 18.0005 39.2831 18.0016 38.8978 17.9981H16.933C16.9324 14.9387 16.9324 11.879 16.9325 8.81946L16.9326 5.75308C21.243 6.02961 25.5532 6.30906 29.8633 6.5885L29.869 6.58887C32.9972 6.79168 36.1253 6.99449 39.2536 7.19618C40.3946 7.19539 41.536 7.56526 42.4391 8.25915C43.3099 8.91945 43.9575 9.86781 44.2329 10.9201C44.2325 9.8328 44.2326 8.74536 44.2326 7.65794C44.2327 6.84053 44.2327 6.02313 44.2325 5.2058ZM30.5363 13.0034C33.3224 13.0035 36.1085 13.0036 38.8946 13.003C39.3083 13.0085 39.6927 12.688 39.7614 12.285C39.8381 11.9104 39.6297 11.5053 39.2827 11.3409C39.1253 11.2576 38.9482 11.2496 38.773 11.2416C38.7198 11.2392 38.6667 11.2368 38.6144 11.2323C36.3569 11.0919 34.0991 10.9537 31.8413 10.8155C30.2926 10.7208 28.7438 10.626 27.1952 10.5305C26.1136 10.3965 25.0504 10.0255 24.1641 9.38928C23.2007 8.70409 22.4661 7.68854 22.1826 6.54299C22.1752 7.96895 22.1764 9.3949 22.1776 10.8208C22.1782 11.5485 22.1788 12.2761 22.1782 13.0037C24.9642 13.0032 27.7502 13.0033 30.5363 13.0034Z" fill="#363A44"/>
<path d="M8.95881 5.29669C6.13934 9.53076 3.31987 13.7644 0.5 17.9977C2.59125 17.9985 4.68249 17.9989 6.77374 17.9977C7.97539 16.1429 9.17768 14.2885 10.38 12.4342C11.8505 10.1662 13.3209 7.89822 14.7902 5.62941C12.8463 5.51679 10.9027 5.40536 8.95881 5.29669Z" fill="#363A44"/>
</svg>
