<svg width="96" height="16" viewBox="0 0 96 16" fill="none" xmlns="http://www.w3.org/2000/svg">
<path fill-rule="evenodd" clip-rule="evenodd" d="M52.6426 7.4861C52.6426 7.4861 51.7094 6.89071 51.132 6.66208C51.132 6.66208 49.3443 5.80949 48.9886 5.39986C48.9886 5.39986 48.2911 4.7235 48.6976 3.93759C48.6976 3.93759 48.8685 3.42318 49.603 3.42318C49.603 3.42318 50.5638 3.47557 50.5638 4.29006V5.43797H54.0007L53.996 3.75183C53.996 3.75183 54.2593 0.989237 49.9495 0.865397C49.9495 0.865397 46.5588 0.636768 45.5888 2.51819C45.5888 2.51819 45.2054 2.93734 45.2054 4.39961V5.45702C45.2054 5.45702 45.1684 6.67637 45.7689 7.46228C45.7689 7.46228 46.1108 7.97669 46.9515 8.5435C46.9515 8.5435 48.6607 9.49136 49.6862 10.0344C49.6862 10.0344 50.7209 10.644 50.5869 11.6109C50.5869 11.6109 50.5038 12.6064 49.5014 12.5636C49.5014 12.5636 48.5868 12.5207 48.5868 11.5443V10.4011H44.9282V12.0634C44.9282 12.0634 44.8266 15.2452 49.5291 15.2452C49.5291 15.2452 54.0238 15.3404 54.2316 11.9825V10.6297C54.2316 10.6297 54.3933 8.57208 52.6426 7.4861ZM35.0566 1.25597L33.9064 8.69116H33.6385L32.539 1.32265H26.8018L26.5154 14.7832H29.9152L29.9568 4.64253H30.2247L32.0263 14.7832H35.6017L37.3709 4.64729H37.6065L37.6896 14.7832H41.1034L40.7338 1.25597H35.0566ZM14.833 1.31313L12.5741 14.7689H16.2327L17.5723 4.33769H17.8725L19.2122 14.7689H22.8661L20.6026 1.31313H14.833ZM91.5793 7.30033V9.28655H92.517V11.4156C92.517 12.4588 91.6532 12.4778 91.6532 12.4778C90.6046 12.4778 90.6415 11.4871 90.6415 11.4871V4.11859C90.6415 3.36126 91.5746 3.31839 91.5746 3.31839C92.4708 3.31839 92.4754 4.22338 92.4754 4.22338V5.3427H95.9215C96.0323 3.15644 95.612 2.62774 95.612 2.62774C94.7574 0.651058 91.5238 0.755846 91.5238 0.755846C86.558 0.755846 87.1077 4.6854 87.1077 4.6854V11.811C87.214 15.4976 92.1059 15.1213 92.189 15.1166C94.3647 14.8689 95.0207 14.1544 95.0207 14.1544C95.6258 13.6924 95.7829 13.0494 95.7829 13.0494C95.9538 12.6779 96 11.4823 96 11.4823V7.29557L91.5793 7.30033ZM80.1648 9.49136H80.017L76.5201 1.26073H72.3396V14.7832H75.744L75.5408 6.55253H75.6932L79.3148 14.7832H83.3706V1.25597H79.9246L80.1648 9.49136ZM64.0339 11.4156C64.0339 11.4156 64.0847 12.5254 63.087 12.5254C63.087 12.5254 62.0384 12.5826 62.0384 11.4442L62.0291 1.27026H58.2967V11.3633C58.2967 11.3633 57.9133 15.1833 63.1424 15.1833C63.1424 15.1833 67.6879 15.2404 67.6879 11.5395V1.27026H64.0386L64.0339 11.4156ZM7.71453 7.4861C7.71453 7.4861 6.78142 6.89071 6.20399 6.66208C6.20399 6.66208 4.4163 5.80949 4.0606 5.39986C4.0606 5.39986 3.36308 4.7235 3.7742 3.93759C3.7742 3.93759 3.94512 3.42318 4.6796 3.42318C4.6796 3.42318 5.64043 3.47557 5.64043 4.29006V5.43797H9.07724L9.07262 3.75183C9.07262 3.75183 9.33593 0.989237 5.02605 0.865397C5.02605 0.865397 4.7027 0.841581 4.2269 0.87016C4.2269 0.87016 1.61696 1.01305 0.683842 2.48961C0.679222 2.49914 0.669984 2.50866 0.665364 2.51819C0.665364 2.51819 0.286576 2.93734 0.286576 4.39961V5.45702C0.286576 5.45702 0.245001 6.67637 0.850139 7.46228C0.850139 7.46228 1.19197 7.97669 2.0327 8.5435C2.0327 8.5435 3.74187 9.49136 4.76737 10.0344C4.76737 10.0344 5.80211 10.644 5.66815 11.6109C5.66815 11.6109 5.585 12.6064 4.58721 12.5636C4.58721 12.5636 3.67258 12.5207 3.67258 11.5443V10.3963H0.000174448V12.0634C0.000174448 12.0634 -0.101452 15.2452 4.60107 15.2452C4.60107 15.2452 9.09572 15.3404 9.30821 11.9825V10.6297C9.30821 10.6297 9.46527 8.57208 7.71453 7.4861Z" fill="#363A44"/>
</svg>
