<svg width="176" height="176" viewBox="0 0 176 176" fill="none" xmlns="http://www.w3.org/2000/svg">
<rect width="176" height="176" rx="12" fill="#0A0A0A"/>
<path d="M94.2372 121.949H131.394C132.58 121.949 133.715 121.532 134.741 120.945C135.768 120.357 136.827 119.619 137.419 118.601C138.012 117.584 138.424 116.429 138.424 115.254C138.423 114.079 138.013 112.924 137.419 111.907L112.313 68.7246C111.721 67.7069 110.997 66.9689 109.97 66.3812C108.944 65.7939 107.473 65.377 106.288 65.377C105.103 65.377 103.967 65.7939 102.941 66.3812C101.914 66.9689 101.19 67.7069 100.597 68.7246L94.2372 79.7712L81.5168 58.3467C80.9237 57.3292 80.2006 56.257 79.1736 55.6696C78.1467 55.082 77.0119 55 75.8263 55C74.6406 55 73.5056 55.082 72.4787 55.6696C71.4519 56.257 70.3939 57.3292 69.8009 58.3467L38.6695 111.907C38.076 112.924 38.0005 114.079 38 115.254C37.9995 116.429 38.0769 117.583 38.6695 118.601C39.2621 119.619 40.3206 120.357 41.3474 120.945C42.3743 121.532 43.5092 121.949 44.6949 121.949H68.1271C77.4117 121.949 84.1697 117.784 88.8813 109.898L100.263 90.1482L106.288 79.7712L124.699 111.237H100.263L94.2372 121.949ZM67.7924 111.237H51.3897L75.8263 69.0593L88.2118 90.1482L80.0076 104.45C76.8788 109.567 73.3114 111.237 67.7924 111.237Z" fill="white"/>
</svg>
