<svg width="176" height="176" viewBox="0 0 176 176" fill="none" xmlns="http://www.w3.org/2000/svg">
<rect width="176" height="176" rx="12" fill="#0A0A0A"/>
<path d="M71.2481 84.7698C72.8272 78.8772 78.8843 72.8201 84.7769 71.241L121.514 61.3958C127.407 59.8167 130.903 63.3134 129.324 69.206L119.479 105.943C117.9 111.836 111.843 117.893 105.95 119.472L69.2131 129.317C63.3205 130.896 59.8238 127.399 61.4029 121.507L71.2481 84.7698Z" fill="white" fill-opacity="0.7"/>
<path d="M56.521 70.0422C58.1002 64.1496 64.1572 58.0926 70.0498 56.5135L106.787 46.6683C112.679 45.0891 116.176 48.5859 114.597 54.4785L104.752 91.2155C103.173 97.1081 97.1157 103.165 91.2231 104.744L54.486 114.589C48.5934 116.169 45.0967 112.672 46.6759 106.779L56.521 70.0422Z" fill="white"/>
</svg>
