<svg width="20" height="21" viewBox="0 0 20 21" fill="none" xmlns="http://www.w3.org/2000/svg">
<g clip-path="url(#clip0_5454_2013)">
<path d="M10 1.82227C12.6719 1.82227 12.9883 1.83398 14.0391 1.88086C15.0156 1.92383 15.543 2.08789 15.8945 2.22461C16.3594 2.4043 16.6953 2.62305 17.043 2.9707C17.3945 3.32227 17.6094 3.6543 17.7891 4.11914C17.9258 4.4707 18.0898 5.00195 18.1328 5.97461C18.1797 7.0293 18.1914 7.3457 18.1914 10.0137C18.1914 12.6855 18.1797 13.002 18.1328 14.0527C18.0898 15.0293 17.9258 15.5566 17.7891 15.9082C17.6094 16.373 17.3906 16.709 17.043 17.0566C16.6914 17.4082 16.3594 17.623 15.8945 17.8027C15.543 17.9395 15.0117 18.1035 14.0391 18.1465C12.9844 18.1934 12.668 18.2051 10 18.2051C7.32813 18.2051 7.01172 18.1934 5.96094 18.1465C4.98438 18.1035 4.45703 17.9395 4.10547 17.8027C3.64063 17.623 3.30469 17.4043 2.95703 17.0566C2.60547 16.7051 2.39063 16.373 2.21094 15.9082C2.07422 15.5566 1.91016 15.0254 1.86719 14.0527C1.82031 12.998 1.80859 12.6816 1.80859 10.0137C1.80859 7.3418 1.82031 7.02539 1.86719 5.97461C1.91016 4.99805 2.07422 4.4707 2.21094 4.11914C2.39063 3.6543 2.60938 3.31836 2.95703 2.9707C3.30859 2.61914 3.64063 2.4043 4.10547 2.22461C4.45703 2.08789 4.98828 1.92383 5.96094 1.88086C7.01172 1.83398 7.32813 1.82227 10 1.82227ZM10 0.0214844C7.28516 0.0214844 6.94531 0.0332031 5.87891 0.0800781C4.81641 0.126953 4.08594 0.298828 3.45313 0.544922C2.79297 0.802734 2.23438 1.14258 1.67969 1.70117C1.12109 2.25586 0.78125 2.81445 0.523438 3.4707C0.277344 4.10742 0.105469 4.83398 0.0585938 5.89648C0.0117188 6.9668 0 7.30664 0 10.0215C0 12.7363 0.0117188 13.0762 0.0585938 14.1426C0.105469 15.2051 0.277344 15.9355 0.523438 16.5684C0.78125 17.2285 1.12109 17.7871 1.67969 18.3418C2.23438 18.8965 2.79297 19.2402 3.44922 19.4941C4.08594 19.7402 4.8125 19.9121 5.875 19.959C6.94141 20.0059 7.28125 20.0176 9.99609 20.0176C12.7109 20.0176 13.0508 20.0059 14.1172 19.959C15.1797 19.9121 15.9102 19.7402 16.543 19.4941C17.1992 19.2402 17.7578 18.8965 18.3125 18.3418C18.8672 17.7871 19.2109 17.2285 19.4648 16.5723C19.7109 15.9355 19.8828 15.209 19.9297 14.1465C19.9766 13.0801 19.9883 12.7402 19.9883 10.0254C19.9883 7.31055 19.9766 6.9707 19.9297 5.9043C19.8828 4.8418 19.7109 4.11133 19.4648 3.47852C19.2188 2.81445 18.8789 2.25586 18.3203 1.70117C17.7656 1.14648 17.207 0.802734 16.5508 0.548828C15.9141 0.302734 15.1875 0.130859 14.125 0.0839844C13.0547 0.0332031 12.7148 0.0214844 10 0.0214844Z" fill="#8A94A6"/>
<path d="M10 4.88477C7.16406 4.88477 4.86328 7.18555 4.86328 10.0215C4.86328 12.8574 7.16406 15.1582 10 15.1582C12.8359 15.1582 15.1367 12.8574 15.1367 10.0215C15.1367 7.18555 12.8359 4.88477 10 4.88477ZM10 13.3535C8.16016 13.3535 6.66797 11.8613 6.66797 10.0215C6.66797 8.18164 8.16016 6.68945 10 6.68945C11.8398 6.68945 13.332 8.18164 13.332 10.0215C13.332 11.8613 11.8398 13.3535 10 13.3535Z" fill="#8A94A6"/>
<path d="M16.5391 4.68164C16.5391 5.34571 16 5.88086 15.3398 5.88086C14.6758 5.88086 14.1406 5.3418 14.1406 4.68164C14.1406 4.01758 14.6797 3.48242 15.3398 3.48242C16 3.48242 16.5391 4.02149 16.5391 4.68164Z" fill="#8A94A6"/>
</g>
<defs>
<clipPath id="clip0_5454_2013">
<rect width="20" height="20" fill="white" transform="translate(0 0.0214844)"/>
</clipPath>
</defs>
</svg>
