<svg width="48" height="48" viewBox="0 0 48 48" fill="none" xmlns="http://www.w3.org/2000/svg">
<path d="M14.4841 22.1655C15.3811 18.8183 18.8217 15.3777 22.1689 14.4807L43.0369 8.88827C46.3841 7.99125 48.3704 9.97752 47.4734 13.3247L41.881 34.1927C40.9839 37.5399 37.5433 40.9805 34.1961 41.8775L13.3281 47.4699C9.98094 48.367 7.99467 46.3807 8.89169 43.0335L14.4841 22.1655Z" fill="#3696FB"/>
<path d="M6.11885 13.7993C7.01587 10.4521 10.4565 7.01148 13.8037 6.11446L34.6717 0.522058C38.0189 -0.374958 40.0052 1.61131 39.1081 4.95852L33.5157 25.8265C32.6187 29.1737 29.1781 32.6143 25.8309 33.5113L4.96291 39.1037C1.61571 40.0007 -0.370564 38.0145 0.526452 34.6673L6.11885 13.7993Z" fill="#1861DD"/>
</svg>
