<svg width="156" height="44" viewBox="0 0 156 44" fill="none" xmlns="http://www.w3.org/2000/svg">
<path d="M13.2774 20.3185C14.0997 17.2502 17.2536 14.0963 20.3219 13.274L39.4509 8.14766C42.5191 7.3254 44.3399 9.14614 43.5176 12.2144L38.3912 31.3434C37.569 34.4117 34.4151 37.5656 31.3468 38.3878L12.2178 43.5142C9.14956 44.3365 7.32881 42.5157 8.15108 39.4474L13.2774 20.3185Z" fill="#3696FB"/>
<path d="M5.60899 12.6495C6.43125 9.58125 9.58515 6.42735 12.6534 5.60508L31.7824 0.478716C34.8507 -0.343548 36.6714 1.4772 35.8492 4.54547L30.7228 23.6744C29.9005 26.7427 26.7466 29.8966 23.6784 30.7189L4.54938 35.8452C1.48111 36.6675 -0.339642 34.8468 0.482622 31.7785L5.60899 12.6495Z" fill="#1861DD"/>
<path d="M78.6494 13.26V32.72H75.4511V19.392L69.5035 32.72H67.2872L61.3115 19.392V32.72H58.1133V13.26H61.564L68.4094 28.52L75.2267 13.26H78.6494Z" fill="#363A44"/>
<path d="M89.5581 32.972C88.0992 32.972 86.7806 32.6453 85.6023 31.992C84.424 31.32 83.4982 30.3867 82.8249 29.192C82.1516 27.9787 81.815 26.5787 81.815 24.992C81.815 23.424 82.161 22.0333 82.853 20.82C83.545 19.6067 84.4895 18.6733 85.6865 18.02C86.8835 17.3667 88.2208 17.04 89.6983 17.04C91.1759 17.04 92.5132 17.3667 93.7102 18.02C94.9072 18.6733 95.8517 19.6067 96.5437 20.82C97.2357 22.0333 97.5817 23.424 97.5817 24.992C97.5817 26.56 97.2264 27.9507 96.5156 29.164C95.8049 30.3773 94.8324 31.32 93.5979 31.992C92.3822 32.6453 91.0356 32.972 89.5581 32.972ZM89.5581 30.2C90.381 30.2 91.1478 30.004 91.8586 29.612C92.588 29.22 93.1771 28.632 93.626 27.848C94.0749 27.064 94.2993 26.112 94.2993 24.992C94.2993 23.872 94.0842 22.9293 93.6541 22.164C93.2239 21.38 92.6534 20.792 91.9427 20.4C91.232 20.008 90.4652 19.812 89.6422 19.812C88.8193 19.812 88.0525 20.008 87.3417 20.4C86.6497 20.792 86.098 21.38 85.6865 22.164C85.275 22.9293 85.0693 23.872 85.0693 24.992C85.0693 26.6533 85.4901 27.9413 86.3318 28.856C87.1921 29.752 88.2675 30.2 89.5581 30.2Z" fill="#363A44"/>
<path d="M99.6773 24.936C99.6773 23.3867 99.9952 22.0147 100.631 20.82C101.286 19.6253 102.165 18.7013 103.268 18.048C104.39 17.376 105.634 17.04 107 17.04C108.01 17.04 109.001 17.264 109.973 17.712C110.965 18.1413 111.75 18.72 112.33 19.448V12H115.556V32.72H112.33V30.396C111.806 31.1427 111.077 31.7587 110.142 32.244C109.225 32.7293 108.169 32.972 106.972 32.972C105.625 32.972 104.39 32.636 103.268 31.964C102.165 31.2733 101.286 30.3213 100.631 29.108C99.9952 27.876 99.6773 26.4853 99.6773 24.936ZM112.33 24.992C112.33 23.928 112.106 23.004 111.657 22.22C111.226 21.436 110.656 20.8387 109.945 20.428C109.235 20.0173 108.468 19.812 107.645 19.812C106.822 19.812 106.055 20.0173 105.344 20.428C104.634 20.82 104.054 21.408 103.605 22.192C103.175 22.9573 102.96 23.872 102.96 24.936C102.96 26 103.175 26.9333 103.605 27.736C104.054 28.5387 104.634 29.1547 105.344 29.584C106.074 29.9947 106.841 30.2 107.645 30.2C108.468 30.2 109.235 29.9947 109.945 29.584C110.656 29.1733 111.226 28.576 111.657 27.792C112.106 26.9893 112.33 26.056 112.33 24.992Z" fill="#363A44"/>
<path d="M133.925 24.628C133.925 25.2067 133.887 25.7293 133.812 26.196H122.001C122.095 27.428 122.553 28.4173 123.376 29.164C124.199 29.9107 125.209 30.284 126.406 30.284C128.127 30.284 129.342 29.5653 130.053 28.128H133.504C133.036 29.5467 132.185 30.7133 130.951 31.628C129.735 32.524 128.22 32.972 126.406 32.972C124.928 32.972 123.601 32.6453 122.422 31.992C121.263 31.32 120.346 30.3867 119.673 29.192C119.018 27.9787 118.691 26.5787 118.691 24.992C118.691 23.4053 119.009 22.0147 119.645 20.82C120.299 19.6067 121.207 18.6733 122.366 18.02C123.544 17.3667 124.891 17.04 126.406 17.04C127.865 17.04 129.165 17.3573 130.306 17.992C131.447 18.6267 132.335 19.5227 132.971 20.68C133.607 21.8187 133.925 23.1347 133.925 24.628ZM130.586 23.62C130.567 22.444 130.147 21.5013 129.324 20.792C128.501 20.0827 127.481 19.728 126.266 19.728C125.162 19.728 124.218 20.0827 123.432 20.792C122.647 21.4827 122.179 22.4253 122.029 23.62H130.586Z" fill="#363A44"/>
<path d="M140.27 12V32.72H137.072V12H140.27Z" fill="#363A44"/>
<path d="M150.08 32.972C148.865 32.972 147.77 32.7573 146.798 32.328C145.844 31.88 145.087 31.2827 144.525 30.536C143.964 29.7707 143.665 28.9213 143.628 27.988H146.938C146.994 28.6413 147.303 29.192 147.864 29.64C148.444 30.0693 149.164 30.284 150.024 30.284C150.922 30.284 151.614 30.116 152.1 29.78C152.605 29.4253 152.858 28.9773 152.858 28.436C152.858 27.8573 152.577 27.428 152.016 27.148C151.474 26.868 150.604 26.56 149.407 26.224C148.247 25.9067 147.303 25.5987 146.573 25.3C145.844 25.0013 145.208 24.544 144.666 23.928C144.142 23.312 143.88 22.5 143.88 21.492C143.88 20.6707 144.123 19.924 144.61 19.252C145.096 18.5613 145.788 18.02 146.686 17.628C147.602 17.236 148.649 17.04 149.828 17.04C151.586 17.04 152.998 17.488 154.064 18.384C155.149 19.2613 155.729 20.4653 155.803 21.996H152.605C152.549 21.3053 152.269 20.7547 151.764 20.344C151.259 19.9333 150.576 19.728 149.716 19.728C148.874 19.728 148.229 19.8867 147.78 20.204C147.331 20.5213 147.106 20.9413 147.106 21.464C147.106 21.8747 147.256 22.22 147.555 22.5C147.855 22.78 148.219 23.004 148.649 23.172C149.08 23.3213 149.716 23.5173 150.557 23.76C151.679 24.0587 152.596 24.3667 153.307 24.684C154.036 24.9827 154.663 25.4307 155.186 26.028C155.71 26.6253 155.981 27.4187 156 28.408C156 29.2853 155.757 30.0693 155.27 30.76C154.784 31.4507 154.092 31.992 153.194 32.384C152.315 32.776 151.277 32.972 150.08 32.972Z" fill="#363A44"/>
</svg>
