<svg width="19" height="23" viewBox="0 0 19 23" fill="none" xmlns="http://www.w3.org/2000/svg">
<path fill-rule="evenodd" clip-rule="evenodd" d="M5.35703 21.7465L5.7249 19.3313L4.90541 19.3116H0.992188L3.71174 1.48885C3.72021 1.43488 3.7476 1.38478 3.7876 1.34914C3.8278 1.3135 3.87903 1.29395 3.93262 1.29395H10.5309C12.7216 1.29395 14.2333 1.76501 15.0225 2.69491C15.3925 3.13114 15.6282 3.58713 15.7423 4.08874C15.8619 4.6152 15.8638 5.24409 15.7472 6.01127L15.7387 6.06707V6.5587L16.1087 6.7754C16.4203 6.94626 16.6679 7.14178 16.8579 7.3656C17.1743 7.7387 17.3791 8.21281 17.4656 8.7747C17.555 9.35268 17.5255 10.0406 17.3791 10.8194C17.2102 11.7151 16.9373 12.4953 16.5686 13.1336C16.2297 13.7218 15.7978 14.2097 15.2849 14.5877C14.7953 14.947 14.2136 15.2197 13.5559 15.3942C12.9185 15.5657 12.1918 15.6522 11.3947 15.6522H10.8813C10.5142 15.6522 10.1575 15.7889 9.87753 16.0339C9.59675 16.284 9.41114 16.6257 9.35419 16.9994L9.31538 17.2169L8.66534 21.474L8.63598 21.6302C8.6281 21.6797 8.6147 21.7043 8.595 21.721C8.57746 21.7363 8.55224 21.7465 8.52761 21.7465H5.35703Z" fill="#28356A"/>
<path fill-rule="evenodd" clip-rule="evenodd" d="M16.4595 6.12402C16.44 6.25416 16.4173 6.38715 16.3921 6.5238C15.5219 11.1415 12.5449 12.7368 8.74276 12.7368H6.80684C6.34182 12.7368 5.94991 13.0857 5.8776 13.5598L4.6057 21.8985C4.5586 22.2099 4.79072 22.4904 5.09456 22.4904H8.52819C8.93468 22.4904 9.28009 22.1851 9.34413 21.7706L9.37783 21.5904L10.0243 17.35L10.0659 17.1175C10.1291 16.7016 10.4753 16.3961 10.8818 16.3961H11.3953C14.722 16.3961 17.3263 15.0002 18.0874 10.9605C18.4052 9.27298 18.2407 7.86387 17.3994 6.87287C17.1448 6.57411 16.8289 6.32605 16.4595 6.12402Z" fill="#B3B9C6"/>
<path fill-rule="evenodd" clip-rule="evenodd" d="M15.5487 5.74956C15.4157 5.70943 15.2785 5.67318 15.1379 5.64039C14.9964 5.60842 14.8516 5.58011 14.7024 5.55527C14.1804 5.4681 13.6084 5.42676 12.9958 5.42676H7.82411C7.69662 5.42676 7.57564 5.45649 7.46746 5.51026C7.22885 5.62879 7.05171 5.86218 7.00875 6.14791L5.90848 13.3505L5.87695 13.5604C5.94927 13.0863 6.34118 12.7375 6.8062 12.7375H8.74212C12.5442 12.7375 15.5213 11.1414 16.3914 6.52447C16.4174 6.38782 16.4393 6.25483 16.4588 6.12469C16.2387 6.00392 16.0003 5.90067 15.7436 5.81269C15.6801 5.7909 15.6147 5.76992 15.5487 5.74956Z" fill="#616B81"/>
<path fill-rule="evenodd" clip-rule="evenodd" d="M7.00906 6.14754C7.05201 5.86181 7.22915 5.62842 7.46777 5.5107C7.57673 5.45673 7.69693 5.427 7.82441 5.427H12.9961C13.6087 5.427 14.1807 5.46855 14.7027 5.55571C14.8519 5.58036 14.9967 5.60887 15.1382 5.64084C15.2788 5.67343 15.416 5.70988 15.549 5.7498C15.615 5.77016 15.6804 5.79134 15.7445 5.81232C16.0012 5.9003 16.2398 6.00437 16.4599 6.12432C16.7188 4.41788 16.4577 3.25601 15.5652 2.20391C14.5809 1.04551 12.8048 0.549805 10.5319 0.549805H3.93345C3.46922 0.549805 3.07317 0.89867 3.00145 1.3736L0.253127 19.3796C0.198941 19.7358 0.464749 20.0572 0.812328 20.0572H4.88594L7.00906 6.14754Z" fill="#8A94A6"/>
</svg>
