<svg width="20" height="21" viewBox="0 0 20 21" fill="none" xmlns="http://www.w3.org/2000/svg">
<g clip-path="url(#clip0_5454_2020)">
<path d="M10 20.0215C15.5228 20.0215 20 15.5443 20 10.0215C20 4.49864 15.5228 0.0214844 10 0.0214844C4.47715 0.0214844 0 4.49864 0 10.0215C0 15.5443 4.47715 20.0215 10 20.0215Z" fill="white"/>
<path d="M10 0.0214844C4.47737 0.0214844 0 4.49885 0 10.0215C0 14.2602 2.63374 17.8816 6.35391 19.3384C6.26337 18.5482 6.1893 17.3301 6.38683 16.4659C6.5679 15.684 7.55556 11.4947 7.55556 11.4947C7.55556 11.4947 7.25926 10.8939 7.25926 10.0133C7.25926 8.62231 8.06584 7.58527 9.06996 7.58527C9.92593 7.58527 10.3374 8.22725 10.3374 8.99268C10.3374 9.84865 9.79424 11.1326 9.50617 12.326C9.26749 13.3219 10.0082 14.1367 10.9877 14.1367C12.7654 14.1367 14.1317 12.2602 14.1317 9.56058C14.1317 7.16552 12.4115 5.49474 9.95062 5.49474C7.10288 5.49474 5.4321 7.62642 5.4321 9.83218C5.4321 10.6882 5.76132 11.61 6.17284 12.112C6.25514 12.2108 6.26337 12.3013 6.23868 12.4001C6.16461 12.7128 5.99177 13.396 5.95885 13.5359C5.9177 13.717 5.8107 13.7581 5.6214 13.6676C4.37037 13.0832 3.58848 11.2643 3.58848 9.79103C3.58848 6.63877 5.87654 3.74165 10.1975 3.74165C13.6626 3.74165 16.3621 6.21078 16.3621 9.51943C16.3621 12.968 14.1893 15.7416 11.177 15.7416C10.1646 15.7416 9.20988 15.2149 8.88889 14.5894C8.88889 14.5894 8.38683 16.4988 8.26337 16.968C8.04115 17.8404 7.4321 18.9268 7.02058 19.5935C7.95885 19.8816 8.9465 20.0379 9.98354 20.0379C15.5062 20.0379 19.9835 15.5606 19.9835 10.0379C20 4.49885 15.5226 0.0214844 10 0.0214844Z" fill="#8A94A6"/>
</g>
<defs>
<clipPath id="clip0_5454_2020">
<rect width="20" height="20" fill="white" transform="translate(0 0.0214844)"/>
</clipPath>
</defs>
</svg>
