<svg width="33" height="15" viewBox="0 0 33 15" fill="none" xmlns="http://www.w3.org/2000/svg">
<path d="M5.49509 15C4.4656 15 3.54306 14.8261 2.72749 14.4784C1.91192 14.1307 1.25678 13.6161 0.762093 12.9346C0.280771 12.2531 0.0267401 11.4325 0 10.4729H3.65002C3.7035 11.0153 3.884 11.4325 4.19151 11.7246C4.49902 12.0028 4.90012 12.1419 5.39482 12.1419C5.90288 12.1419 6.30398 12.0236 6.59812 11.7872C6.89226 11.5369 7.03933 11.1961 7.03933 10.765C7.03933 10.4033 6.919 10.1043 6.67834 9.86787C6.45105 9.63143 6.16359 9.43672 5.81597 9.28373C5.48172 9.13074 5.0004 8.95688 4.37201 8.76217C3.46284 8.4701 2.72081 8.17802 2.14589 7.88595C1.57098 7.59388 1.07629 7.16273 0.661817 6.59249C0.247346 6.02225 0.0401102 5.27816 0.0401102 4.36022C0.0401102 2.99722 0.514747 1.93324 1.46402 1.16829C2.41329 0.38943 3.65002 0 5.17421 0C6.72514 0 7.97523 0.38943 8.92451 1.16829C9.87378 1.93324 10.3818 3.00417 10.4487 4.38108H6.73851C6.71177 3.90821 6.54464 3.53964 6.23713 3.27538C5.92962 2.99722 5.5352 2.85814 5.05388 2.85814C4.63941 2.85814 4.30516 2.97636 4.05113 3.2128C3.79709 3.43533 3.67008 3.76217 3.67008 4.19332C3.67008 4.6662 3.884 5.03477 4.31184 5.29903C4.73968 5.56328 5.40819 5.8484 6.31735 6.15438C7.22651 6.47427 7.96186 6.78025 8.52341 7.07232C9.09832 7.36439 9.59301 7.78859 10.0075 8.34492C10.422 8.90125 10.6292 9.61752 10.6292 10.4937C10.6292 11.3282 10.422 12.0862 10.0075 12.7677C9.60638 13.4492 9.0181 13.9917 8.24264 14.395C7.46717 14.7983 6.55132 15 5.49509 15Z" fill="#98A2B3"/>
<path d="M17.8337 15C16.8042 15 15.8816 14.8261 15.0661 14.4784C14.2505 14.1307 13.5954 13.6161 13.1007 12.9346C12.6193 12.2531 12.3653 11.4325 12.3386 10.4729H15.9886C16.0421 11.0153 16.2226 11.4325 16.5301 11.7246C16.8376 12.0028 17.2387 12.1419 17.7334 12.1419C18.2414 12.1419 18.6425 12.0236 18.9367 11.7872C19.2308 11.5369 19.3779 11.1961 19.3779 10.765C19.3779 10.4033 19.2576 10.1043 19.0169 9.86787C18.7896 9.63143 18.5022 9.43672 18.1545 9.28373C17.8203 9.13074 17.339 8.95688 16.7106 8.76217C15.8014 8.4701 15.0594 8.17802 14.4845 7.88595C13.9096 7.59388 13.4149 7.16273 13.0004 6.59249C12.5859 6.02225 12.3787 5.27816 12.3787 4.36022C12.3787 2.99722 12.8533 1.93324 13.8026 1.16829C14.7519 0.38943 15.9886 0 17.5128 0C19.0637 0 20.3138 0.38943 21.2631 1.16829C22.2124 1.93324 22.7204 3.00417 22.7873 4.38108H19.0771C19.0503 3.90821 18.8832 3.53964 18.5757 3.27538C18.2682 2.99722 17.8738 2.85814 17.3925 2.85814C16.978 2.85814 16.6437 2.97636 16.3897 3.2128C16.1357 3.43533 16.0087 3.76217 16.0087 4.19332C16.0087 4.6662 16.2226 5.03477 16.6504 5.29903C17.0783 5.56328 17.7468 5.8484 18.6559 6.15438C19.5651 6.47427 20.3004 6.78025 20.862 7.07232C21.4369 7.36439 21.9316 7.78859 22.3461 8.34492C22.7605 8.90125 22.9678 9.61752 22.9678 10.4937C22.9678 11.3282 22.7605 12.0862 22.3461 12.7677C21.945 13.4492 21.3567 13.9917 20.5812 14.395C19.8057 14.7983 18.8899 15 17.8337 15Z" fill="#98A2B3"/>
<path d="M28.5077 12.1001H33V14.854H25.0782V0.208623H28.5077V12.1001Z" fill="#98A2B3"/>
</svg>
