<svg width="93" height="21" viewBox="0 0 93 21" fill="none" xmlns="http://www.w3.org/2000/svg">
<path d="M13.7616 2.66753L18.1873 0L20.9176 4.37714L18.7543 3.85883L15.5671 16.263H11.7139L9.3111 9.22645H9.26982L7.04044 16.282H2.36149L0 7.24548H3.55049L4.78904 12.0269H4.83032L7.12301 4.61322H11.1276L13.4203 11.0826H13.4616L15.5286 3.08272L13.7616 2.66753ZM27.4709 16.2358V15.0038H27.4296C26.8049 16.1761 25.3021 16.632 24.0525 16.632C20.4883 16.632 18.2341 13.9184 18.2341 10.5263C18.2341 7.19663 20.5708 4.44226 24.0525 4.44226C25.3241 4.44226 26.7416 4.91444 27.4296 6.04604H27.4709V4.83032H30.9333V16.2413L27.4709 16.2358ZM24.5507 7.69594C23.979 7.69972 23.4213 7.87058 22.9482 8.18691C22.475 8.50325 22.1076 8.95084 21.8925 9.47307C21.6774 9.9953 21.6242 10.5687 21.7397 11.1207C21.8552 11.6728 22.1341 12.1787 22.5412 12.5744C22.9483 12.9701 23.4653 13.2378 24.0268 13.3438C24.5883 13.4497 25.1691 13.3891 25.6956 13.1696C26.2222 12.95 26.6708 12.5815 26.9849 12.1105C27.2989 11.6395 27.4642 11.0872 27.4599 10.5236C27.4541 9.76835 27.1444 9.0463 26.5989 8.51609C26.0534 7.98588 25.3167 7.69089 24.5507 7.69594ZM38.8463 16.632C38.1957 16.66 37.5467 16.5475 36.9448 16.3023C36.343 16.0572 35.8027 15.6853 35.3618 15.2128V20.0431H31.9022V4.83032H35.1554V6.08403H35.2297C35.6621 5.55522 36.2124 5.13177 36.8377 4.84658C37.463 4.56138 38.1465 4.4221 38.8352 4.43955C42.4133 4.43955 44.4858 7.33774 44.4858 10.6484C44.4748 13.8397 42.2234 16.632 38.8463 16.632ZM41.0096 10.5453C41.0096 10.5182 41.0096 10.491 41.0096 10.4639C40.9987 9.68948 40.6776 8.95074 40.1164 8.40883C39.5552 7.86692 38.7995 7.56581 38.014 7.57119C37.2285 7.57656 36.477 7.88798 35.9235 8.43752C35.37 8.98705 35.0593 9.73011 35.0593 10.5046C35.0593 11.2791 35.37 12.0221 35.9235 12.5717C36.477 13.1212 37.2285 13.4326 38.014 13.438C38.7995 13.4434 39.5552 13.1422 40.1164 12.6003C40.6776 12.0584 40.9987 11.3197 41.0096 10.5453ZM48.8509 16.244V12.7542H45.2454V16.2413L48.8509 16.244ZM57.2978 16.035C57.8909 15.7969 58.4027 15.3968 58.7731 14.8817C59.1017 14.41 59.2756 13.8502 59.2712 13.2779C59.2876 12.9069 59.2223 12.5367 59.0797 12.1928C58.9372 11.849 58.7209 11.5397 58.4455 11.2861C57.6139 10.6614 56.6379 10.2502 55.6051 10.0894C54.8985 9.94362 54.2038 9.74588 53.5271 9.49782C53.1531 9.36817 52.8181 9.14795 52.5528 8.85739C52.3721 8.60885 52.2801 8.3082 52.2913 8.00259C52.283 7.74161 52.3378 7.48243 52.4513 7.24648C52.5647 7.01054 52.7335 6.80462 52.9436 6.64576C53.5018 6.26821 54.1729 6.0875 54.8482 6.13287C55.4406 6.09282 56.0329 6.21093 56.5629 6.4748C56.9656 6.71629 57.3065 7.04591 57.5593 7.43815C57.6078 7.52097 57.6776 7.58969 57.7617 7.63734C57.8458 7.68499 57.9412 7.70989 58.0382 7.70951H58.363C58.4804 7.71244 58.5952 7.67503 58.6877 7.60368C58.7364 7.56493 58.7754 7.51565 58.8017 7.45964C58.8279 7.40364 58.8407 7.34243 58.8391 7.28075C58.7896 6.92907 58.631 6.6011 58.385 6.34183C58.0263 5.90378 57.5642 5.55904 57.0391 5.33777C56.352 5.01674 55.5971 4.86229 54.8372 4.8873C54.1027 4.86825 53.3741 5.02271 52.7124 5.33777C52.1773 5.60734 51.725 6.01301 51.4023 6.51279C51.1195 6.96262 50.9698 7.48146 50.9702 8.01073C50.945 8.7083 51.1934 9.38862 51.6638 9.91029C52.139 10.4096 53.0207 10.8013 54.3088 11.0853C55.0549 11.248 55.7902 11.4556 56.5107 11.7067C56.9186 11.8193 57.2908 12.0322 57.5923 12.3254C57.8293 12.581 57.9549 12.9183 57.9419 13.2644C57.9494 13.5572 57.8767 13.8467 57.7314 14.1022C57.5861 14.3577 57.3735 14.5698 57.1162 14.7162C56.4521 15.0718 55.7023 15.2425 54.9473 15.2101C54.2984 15.24 53.6517 15.1152 53.062 14.8464C52.6064 14.5832 52.2139 14.2259 51.9115 13.799C51.8536 13.7069 51.7706 13.6326 51.6721 13.5846C51.6028 13.5374 51.5194 13.5145 51.4354 13.5195H51.1106C50.9896 13.5227 50.8736 13.5678 50.7831 13.647C50.734 13.6805 50.6944 13.7257 50.668 13.7784C50.6415 13.831 50.629 13.8895 50.6317 13.9482C50.6867 14.3166 50.8581 14.6584 51.1216 14.9251C51.5241 15.3735 52.0172 15.734 52.5693 15.9835C53.318 16.3178 54.1341 16.4792 54.9556 16.4556C55.7587 16.4783 56.5577 16.334 57.3006 16.0323L57.2978 16.035ZM65.83 16.244H65.8878C65.9466 16.2405 66.0042 16.2256 66.0572 16.2001C66.1101 16.1746 66.1574 16.139 66.1963 16.0953C66.2352 16.0516 66.265 16.0008 66.2838 15.9458C66.3027 15.8907 66.3103 15.8325 66.3062 15.7745V15.4136C66.2984 15.2967 66.2439 15.1876 66.1546 15.1103C66.0653 15.0329 65.9486 14.9937 65.83 15.0011H64.6575C64.4001 15.0234 64.1413 14.9802 63.9056 14.8756C63.67 14.7711 63.4655 14.6088 63.3116 14.4041C63.0165 13.8442 62.8805 13.2159 62.9181 12.586V6.36354H65.6071C65.6262 6.36625 65.6457 6.36625 65.6649 6.36354C65.7237 6.36009 65.7813 6.34518 65.8342 6.31966C65.8872 6.29414 65.9345 6.25852 65.9734 6.21486C66.0123 6.1712 66.042 6.12037 66.0609 6.06531C66.0797 6.01025 66.0873 5.95205 66.0832 5.89407V5.59286C66.086 5.57396 66.086 5.55477 66.0832 5.53587C66.0797 5.47786 66.0646 5.4211 66.0387 5.36889C66.0128 5.31668 65.9767 5.27005 65.9324 5.23169C65.8881 5.19333 65.8366 5.16401 65.7807 5.14542C65.7249 5.12683 65.6659 5.11934 65.6071 5.12339H62.9181V1.53051C62.9208 1.51161 62.9208 1.49242 62.9181 1.47352C62.9146 1.41551 62.8994 1.35875 62.8735 1.30654C62.8477 1.25433 62.8115 1.20769 62.7673 1.16934C62.723 1.13098 62.6714 1.10166 62.6156 1.08307C62.5597 1.06448 62.5007 1.05699 62.4419 1.06104H62.0731C62.053 1.05833 62.0326 1.05833 62.0125 1.06104C61.8942 1.06941 61.784 1.12335 61.7057 1.2112C61.6274 1.29905 61.5874 1.41375 61.5942 1.53051V5.12611H59.9043C59.8842 5.12339 59.8638 5.12339 59.8437 5.12611C59.7251 5.13378 59.6145 5.18752 59.5361 5.27553C59.4576 5.36355 59.4178 5.47865 59.4254 5.59557V5.95377C59.4292 6.01191 59.4447 6.06872 59.4708 6.12095C59.497 6.17317 59.5334 6.21979 59.5779 6.25812C59.6224 6.29644 59.6741 6.32573 59.7301 6.34428C59.7861 6.36284 59.8453 6.3703 59.9043 6.36625H61.5942V12.6701C61.5439 13.5937 61.779 14.5106 62.2685 15.2996C62.5388 15.6306 62.8884 15.8899 63.2858 16.0543C63.6832 16.2187 64.1158 16.283 64.5447 16.2413L65.83 16.244ZM75.0255 15.1097C75.8897 14.133 76.3607 12.8779 76.3494 11.5819C76.3494 11.4408 76.3714 11.1396 76.3714 10.6837C76.3714 10.2278 76.3714 9.92929 76.3494 9.78546C76.363 8.49558 75.8914 7.24647 75.0255 6.27941C74.58 5.8152 74.0365 5.45309 73.4335 5.21864C72.8304 4.98419 72.1826 4.88313 71.5356 4.92258C70.8855 4.88454 70.2347 4.98617 69.6283 5.22044C69.022 5.4547 68.4744 5.81602 68.0236 6.27941C67.1696 7.2519 66.7064 8.49917 66.7218 9.78546L66.6997 10.6837L66.7218 11.5819C66.7082 12.8745 67.1707 14.128 68.0236 15.1097C68.4761 15.5709 69.0239 15.9307 69.6299 16.1648C70.2358 16.3989 70.8857 16.5018 71.5356 16.4665C72.183 16.5036 72.8308 16.4012 73.4339 16.1664C74.0371 15.9316 74.5812 15.5701 75.0283 15.107L75.0255 15.1097ZM69.042 14.2549C68.3758 13.48 68.0204 12.4916 68.0429 11.4761L68.0236 10.6837L68.0429 9.89401C68.0176 8.88462 68.3736 7.90197 69.042 7.13693C69.3644 6.80966 69.753 6.55285 70.1826 6.38315C70.6122 6.21345 71.0731 6.13466 71.5356 6.15187C71.9959 6.13195 72.4552 6.20957 72.8825 6.37949C73.3098 6.54942 73.6952 6.8077 74.0127 7.13693C74.6948 7.89516 75.0589 8.88084 75.031 9.89401C75.0475 10.0378 75.053 10.3011 75.053 10.6837C75.053 11.0663 75.053 11.3323 75.031 11.4761C75.0565 12.4954 74.6931 13.487 74.0127 14.2549C73.6917 14.5782 73.3052 14.8311 72.8784 14.9971C72.4515 15.1631 71.994 15.2385 71.5356 15.2182C71.0752 15.2353 70.6163 15.1583 70.1877 14.9921C69.759 14.8258 69.3698 14.5739 69.0447 14.2522L69.042 14.2549ZM78.8567 16.244C78.9203 16.2468 78.9837 16.2369 79.0433 16.215C79.1029 16.1931 79.1574 16.1596 79.2035 16.1164C79.2534 16.0745 79.293 16.0219 79.3192 15.9627C79.3454 15.9034 79.3576 15.8391 79.3549 15.7745V9.14233C79.325 8.76968 79.3775 8.39508 79.5088 8.04439C79.64 7.6937 79.8469 7.37526 80.1151 7.11107C80.3833 6.84688 80.7065 6.64322 81.0623 6.51416C81.4181 6.3851 81.7981 6.33371 82.176 6.36354H83.1669C83.2258 6.35975 83.2835 6.34451 83.3364 6.3187C83.3894 6.29289 83.4367 6.25702 83.4756 6.21315C83.5144 6.16928 83.5441 6.11826 83.563 6.06304C83.5818 6.00782 83.5893 5.94947 83.5852 5.89136V5.53316C83.5768 5.41871 83.5235 5.31199 83.4367 5.23553C83.3499 5.15907 83.2364 5.11886 83.1201 5.12339H82.3192C80.8751 5.12339 79.8916 5.61457 79.3687 6.59691V5.61457C79.3639 5.4858 79.3099 5.36359 79.2175 5.27248C79.1251 5.18137 79.0011 5.1281 78.8705 5.12339H78.5237C78.4582 5.1205 78.3929 5.13245 78.3327 5.15832C78.2726 5.18419 78.2193 5.2233 78.1769 5.27264C78.1322 5.31749 78.0976 5.37111 78.0753 5.43002C78.053 5.48893 78.0436 5.55181 78.0476 5.61457V15.7718C78.0448 15.7907 78.0448 15.8099 78.0476 15.8288C78.0511 15.8868 78.0662 15.9436 78.0921 15.9958C78.1179 16.048 78.1541 16.0946 78.1984 16.133C78.2426 16.1713 78.2942 16.2006 78.35 16.2192C78.4059 16.2378 78.4649 16.2453 78.5237 16.2413L78.8567 16.244ZM90.4991 16.0052C91.0955 15.7524 91.6339 15.3832 92.0816 14.9197C92.3999 14.6367 92.6074 14.2526 92.6679 13.8342C92.6685 13.782 92.6569 13.7304 92.634 13.6833C92.6111 13.6363 92.5775 13.595 92.5358 13.5629C92.4441 13.4897 92.3289 13.4512 92.211 13.4543H91.8642C91.7377 13.4458 91.611 13.4682 91.4954 13.5195C91.3923 13.6162 91.3 13.7235 91.2202 13.8397C90.8726 14.2979 90.4157 14.6645 89.8899 14.9069C89.3642 15.1493 88.7859 15.2599 88.2064 15.2291C87.5707 15.2389 86.9475 15.054 86.4229 14.6999C85.9154 14.3408 85.506 13.8635 85.2311 13.3105C84.9541 12.7195 84.7979 12.0805 84.7715 11.4299V11.2156H92.4917C92.5553 11.2184 92.6187 11.2085 92.6783 11.1866C92.7379 11.1647 92.7924 11.1312 92.8385 11.088C92.8884 11.0461 92.928 10.9935 92.9542 10.9343C92.9804 10.875 92.9926 10.8107 92.9899 10.7461V10.4232C93.0749 8.96821 92.6211 7.53234 91.7128 6.38253C91.6987 6.37126 91.6857 6.35852 91.6743 6.34454C91.233 5.89718 90.7066 5.53997 90.1251 5.29332C89.5437 5.04669 88.9187 4.91546 88.2858 4.90714C87.6528 4.89882 87.0245 5.01358 86.4366 5.24485C85.8487 5.47613 85.3128 5.81938 84.8596 6.25499C83.9932 7.25367 83.4963 8.51277 83.4504 9.82617L83.4283 10.681L83.4504 11.5358C83.4951 12.8599 84.0004 14.1285 84.8816 15.1287C85.3067 15.5699 85.8225 15.9166 86.3945 16.1454C86.9664 16.3742 87.5814 16.48 88.1981 16.4556C88.9893 16.4698 89.7745 16.3181 90.5018 16.0106L90.4991 16.0052ZM84.7715 10.0188V9.93472C84.7324 8.95132 85.0561 7.98728 85.6825 7.22105L85.8201 7.08266C86.1505 6.7751 86.539 6.53471 86.9636 6.37522C87.3882 6.21572 87.8405 6.14025 88.2946 6.1531C88.7488 6.16595 89.1959 6.26688 89.6105 6.45012C90.0251 6.63336 90.3991 6.89532 90.711 7.22105C91.3631 7.97557 91.704 8.9441 91.666 9.93472V10.0188H84.7715Z" fill="#FE5000"/>
</svg>
